<svg width="1600" height="1000" viewBox="0 0 1600 1000" fill="none" xmlns="http://www.w3.org/2000/svg">
  <defs>
    <linearGradient id="bg" x1="1600" y1="0" x2="200" y2="1000" gradientUnits="userSpaceOnUse">
      <stop stop-color="#10131F"/>
      <stop offset="1" stop-color="#0D0F16"/>
    </linearGradient>
    <linearGradient id="calc" x1="500" y1="180" x2="1100" y2="820" gradientUnits="userSpaceOnUse">
      <stop stop-color="#1A2030"/>
      <stop offset="1" stop-color="#111726"/>
    </linearGradient>
  </defs>
  <rect width="1600" height="1000" fill="url(#bg)"/>
  <circle cx="300" cy="180" r="190" fill="#8A9BFF" fill-opacity="0.1"/>
  <circle cx="1320" cy="820" r="230" fill="#66E3FF" fill-opacity="0.08"/>
  <rect x="500" y="180" width="600" height="640" rx="34" fill="url(#calc)" stroke="#F2F5FF" stroke-opacity="0.22"/>
  <rect x="560" y="240" width="480" height="120" rx="18" fill="#0A111D" stroke="#F2F5FF" stroke-opacity="0.2"/>
  <text x="1000" y="318" fill="#EDF3FF" font-family="JetBrains Mono, monospace" font-size="46" text-anchor="end">124.86</text>
  <g fill="#141F31" stroke="#F2F5FF" stroke-opacity="0.18">
    <rect x="560" y="400" width="95" height="86" rx="14"/>
    <rect x="678" y="400" width="95" height="86" rx="14"/>
    <rect x="796" y="400" width="95" height="86" rx="14"/>
    <rect x="914" y="400" width="126" height="86" rx="14"/>
    <rect x="560" y="508" width="95" height="86" rx="14"/>
    <rect x="678" y="508" width="95" height="86" rx="14"/>
    <rect x="796" y="508" width="95" height="86" rx="14"/>
    <rect x="914" y="508" width="126" height="86" rx="14"/>
    <rect x="560" y="616" width="213" height="86" rx="14"/>
    <rect x="796" y="616" width="95" height="86" rx="14"/>
    <rect x="914" y="616" width="126" height="86" rx="14"/>
  </g>
  <text x="800" y="900" fill="#F4F6FF" font-family="Inter, Arial, sans-serif" font-size="56" font-weight="700" text-anchor="middle" letter-spacing="1.2">NEXUS CALCULATOR</text>
</svg>
